<svg xmlns:dc="http://purl.org/dc/elements/1.1/" xmlns:cc="http://creativecommons.org/ns#" xmlns:rdf="http://www.w3.org/1999/02/22-rdf-syntax-ns#" xmlns:svg="http://www.w3.org/2000/svg" xmlns="http://www.w3.org/2000/svg" xmlns:sodipodi="http://sodipodi.sourceforge.net/DTD/sodipodi-0.dtd" xmlns:inkscape="http://www.inkscape.org/namespaces/inkscape" version="1.1" x="0px" y="0px" viewBox="0 0 100 125"><g transform="translate(0,-952.36218)"><path style="font-size:medium;font-style:normal;font-variant:normal;font-weight:normal;font-stretch:normal;text-indent:0;text-align:start;text-decoration:none;line-height:normal;letter-spacing:normal;word-spacing:normal;text-transform:none;direction:ltr;block-progression:tb;writing-mode:lr-tb;text-anchor:start;baseline-shift:baseline;opacity:1;color:#000000;fill:#000000;fill-opacity:1;stroke:none;stroke-width:4;marker:none;visibility:visible;display:inline;overflow:visible;enable-background:accumulate;font-family:Sans;-inkscape-font-specification:Sans" d="M 27.8125 11 A 2.0002 2.0002 0 0 0 26 13 L 26 31 L 8 31 C 7.937546 30.997 7.8749542 30.997 7.8125 31 C 6.8293323 31.0927 5.9957419 32.01248 6 33 L 6 77 C 6.0001047 78.0472 6.9528311 78.9999 8 79 L 14 79 L 14 87 C 14.005 87.767 14.485234 88.53525 15.1875 88.84375 C 15.889765 89.15215 16.775535 88.98395 17.34375 88.46875 L 27.75 79 L 72 79 C 73.047169 78.9999 73.999895 78.0472 74 77 L 74 60.59375 L 82.65625 68.46875 A 2.0002 2.0002 0 0 0 86 67 L 86 59 L 92 59 A 2.0002 2.0002 0 0 0 94 57 L 94 13 A 2.0002 2.0002 0 0 0 92 11 L 28 11 A 2.0002 2.0002 0 0 0 27.8125 11 z M 30 15 L 90 15 L 90 55 L 84 55 A 2.0002 2.0002 0 0 0 82 57 L 82 62.46875 L 74.34375 55.5 A 2.0002 2.0002 0 0 0 73 55 L 30 55 L 30 15 z M 37.8125 21 A 2.0021961 2.0021961 0 1 0 38 25 L 82 25 A 2.0002 2.0002 0 1 0 82 21 L 38 21 A 2.0002 2.0002 0 0 0 37.8125 21 z M 37.8125 33 A 2.0021961 2.0021961 0 1 0 38 37 L 82 37 A 2.0002 2.0002 0 1 0 82 33 L 38 33 A 2.0002 2.0002 0 0 0 37.8125 33 z M 10 35 L 26 35 L 26 57 A 2.0002 2.0002 0 0 0 28 59 L 70 59 L 70 75 L 27 75 C 26.511234 74.99 26.02283 75.1767 25.65625 75.5 L 18 82.46875 L 18 77 C 17.999895 75.9528 17.047169 75.0001 16 75 L 10 75 L 10 35 z M 37.8125 45 A 2.0021961 2.0021961 0 1 0 38 49 L 82 49 A 2.0002 2.0002 0 1 0 82 45 L 38 45 A 2.0002 2.0002 0 0 0 37.8125 45 z " transform="translate(0,952.36218)"/></g><text x="0" y="115" fill="#000000" font-size="5px" font-weight="bold" font-family="'Helvetica Neue', Helvetica, Arial-Unicode, Arial, Sans-serif">Created by hans draiman</text><text x="0" y="120" fill="#000000" font-size="5px" font-weight="bold" font-family="'Helvetica Neue', Helvetica, Arial-Unicode, Arial, Sans-serif">from the Noun Project</text></svg>