<svg xmlns="http://www.w3.org/2000/svg" xmlns:xlink="http://www.w3.org/1999/xlink" version="1.1" x="0px" y="0px" viewBox="0 0 100 125" style="enable-background:new 0 0 100 100;" xml:space="preserve"><g><path d="M88,26.5H69.1l-1.4-5.4c-0.7-2.6-3-4.4-5.7-4.4H38c-2.7,0-5,1.8-5.7,4.4l-1.4,5.4H12c-3.3,0-6,2.7-6,6v44.8   c0,3.3,2.7,6,6,6h76c3.3,0,6-2.7,6-6V32.5C94,29.2,91.3,26.5,88,26.5z M88,77.3H12l0-44.8h0h21.2c1.4,0,2.6-0.9,2.9-2.2l2-7.6   l23.9,0l2,7.6c0.3,1.3,1.5,2.2,2.9,2.2H88V77.3z"/><path d="M50,32.9c-11.4,0-20.6,9.2-20.6,20.6S38.6,74.2,50,74.2s20.6-9.2,20.6-20.6S61.4,32.9,50,32.9z M50,68.2   c-8.1,0-14.6-6.6-14.6-14.6S41.9,38.9,50,38.9s14.6,6.6,14.6,14.6S58.1,68.2,50,68.2z"/></g><text x="0" y="115" fill="#000000" font-size="5px" font-weight="bold" font-family="'Helvetica Neue', Helvetica, Arial-Unicode, Arial, Sans-serif">Created by Agni</text><text x="0" y="120" fill="#000000" font-size="5px" font-weight="bold" font-family="'Helvetica Neue', Helvetica, Arial-Unicode, Arial, Sans-serif">from the Noun Project</text></svg>